 0
SECTION
 2
ENTITIES
  0
LINE
 8
Layer0
10
59.56163198490352
20
0.0
30
0.0
11
-65.43836801509651
21
0.0
31
0.0
  0
POLYLINE
 8
Layer0
 66
     1
70
    8
 10
0.0
 20
 0.0
 30
0.0
  0
VERTEX
  8
MY3DLAYER
10
-33.738368015096526
20
40.800000000000004
30
0.0
 70
     32
  0
VERTEX
  8
MY3DLAYER
10
27.861631984903493
20
40.800000000000004
30
0.0
 70
     32
  0
VERTEX
  8
MY3DLAYER
10
28.482797693149553
20
40.71822198309377
30
0.0
 70
     32
  0
VERTEX
  8
MY3DLAYER
10
29.061631984903496
20
40.47846096908266
30
0.0
 70
     32
  0
VERTEX
  8
MY3DLAYER
10
29.558688259751225
20
40.097056274847716
30
0.0
 70
     32
  0
VERTEX
  8
MY3DLAYER
10
29.94009295398615
20
39.6
30
0.0
 70
     32
  0
VERTEX
  8
MY3DLAYER
10
30.179853967997264
20
39.02116570824605
30
0.0
 70
     32
  0
VERTEX
  8
MY3DLAYER
10
30.261631984903516
20
38.400000000000006
30
0.0
 70
     32
  0
VERTEX
  8
MY3DLAYER
10
30.179853967997264
20
37.77883429175395
30
0.0
 70
     32
  0
VERTEX
  8
MY3DLAYER
10
29.94009295398615
20
37.2
30
0.0
 70
     32
  0
VERTEX
  8
MY3DLAYER
10
29.558688259751225
20
36.70294372515229
30
0.0
 70
     32
  0
VERTEX
  8
MY3DLAYER
10
29.061631984903496
20
36.32153903091735
30
0.0
 70
     32
  0
VERTEX
  8
MY3DLAYER
10
28.482797693149553
20
36.08177801690624
30
0.0
 70
     32
  0
VERTEX
  8
MY3DLAYER
10
27.861631984903493
20
36.0
30
0.0
 70
     32
  0
VERTEX
  8
MY3DLAYER
10
27.23510626224726
20
35.958935334594294
30
0.0
 70
     32
  0
VERTEX
  8
MY3DLAYER
10
26.619300568411397
20
35.836443966187524
30
0.0
 70
     32
  0
VERTEX
  8
MY3DLAYER
10
26.02475150955106
20
35.63462175605418
30
0.0
 70
     32
  0
VERTEX
  8
MY3DLAYER
10
25.46163198490349
20
35.35692193816531
30
0.0
 70
     32
  0
VERTEX
  8
MY3DLAYER
10
24.93957712566164
20
35.00809603339793
30
0.0
 70
     32
  0
VERTEX
  8
MY3DLAYER
10
24.467519435208054
20
34.59411254969543
30
0.0
 70
     32
  0
VERTEX
  8
MY3DLAYER
10
24.053535951505552
20
34.12205485924186
30
0.0
 70
     32
  0
VERTEX
  8
MY3DLAYER
10
23.70471004673819
20
33.6
30
0.0
 70
     32
  0
VERTEX
  8
MY3DLAYER
10
23.42701022884932
20
33.03688047535243
30
0.0
 70
     32
  0
VERTEX
  8
MY3DLAYER
10
23.225188018715954
20
32.4423314164921
30
0.0
 70
     32
  0
VERTEX
  8
MY3DLAYER
10
23.102696650309184
20
31.82652572265625
30
0.0
 70
     32
  0
VERTEX
  8
MY3DLAYER
10
23.061631984903492
20
31.2
30
0.0
 70
     32
  0
VERTEX
  8
MY3DLAYER
10
22.380148510684833
20
26.023619097949567
30
0.0
 70
     32
  0
VERTEX
  8
MY3DLAYER
10
20.382140060592242
20
21.199999999999992
30
0.0
 70
     32
  0
VERTEX
  8
MY3DLAYER
10
19.261631984903474
20
19.739725445288915
30
0.0
 70
     32
  0
VERTEX
  8
MY3DLAYER
10
17.20376760863442
20
17.05786437626905
30
0.0
 70
     32
  0
VERTEX
  8
MY3DLAYER
10
13.061631984903453
20
13.879491924311221
30
0.0
 70
     32
  0
VERTEX
  8
MY3DLAYER
10
8.238012886953888
20
11.881483474218633
30
0.0
 70
     32
  0
VERTEX
  8
MY3DLAYER
10
3.0616319849034768
20
11.200000000000003
30
0.0
 70
     32
  0
VERTEX
  8
MY3DLAYER
10
-8.938368015096524
20
11.200000000000003
30
0.0
 70
     32
  0
VERTEX
  8
MY3DLAYER
10
-14.114748917146956
20
11.88148347421864
30
0.0
 70
     32
  0
VERTEX
  8
MY3DLAYER
10
-18.93836801509653
20
13.879491924311234
30
0.0
 70
     32
  0
VERTEX
  8
MY3DLAYER
10
-23.080503638827476
20
17.05786437626906
30
0.0
 70
     32
  0
VERTEX
  8
MY3DLAYER
10
-25.138368015096518
20
19.739725445288915
30
0.0
 70
     32
  0
VERTEX
  8
MY3DLAYER
10
-26.258876090785296
20
21.200000000000006
30
0.0
 70
     32
  0
VERTEX
  8
MY3DLAYER
10
-28.256884540877888
20
26.023619097949595
30
0.0
 70
     32
  0
VERTEX
  8
MY3DLAYER
10
-28.938368015096522
20
31.2
30
0.0
 70
     32
  0
VERTEX
  8
MY3DLAYER
10
-28.97943268050223
20
31.82652572265625
30
0.0
 70
     32
  0
VERTEX
  8
MY3DLAYER
10
-29.101924048908995
20
32.4423314164921
30
0.0
 70
     32
  0
VERTEX
  8
MY3DLAYER
10
-29.30374625904234
20
33.03688047535243
30
0.0
 70
     32
  0
VERTEX
  8
MY3DLAYER
10
-29.581446076931215
20
33.6
30
0.0
 70
     32
  0
VERTEX
  8
MY3DLAYER
10
-29.930271981698592
20
34.12205485924186
30
0.0
 70
     32
  0
VERTEX
  8
MY3DLAYER
10
-30.34425546540109
20
34.59411254969543
30
0.0
 70
     32
  0
VERTEX
  8
MY3DLAYER
10
-30.816313155854665
20
35.00809603339793
30
0.0
 70
     32
  0
VERTEX
  8
MY3DLAYER
10
-31.338368015096524
20
35.35692193816531
30
0.0
 70
     32
  0
VERTEX
  8
MY3DLAYER
10
-31.901487539744092
20
35.63462175605418
30
0.0
 70
     32
  0
VERTEX
  8
MY3DLAYER
10
-32.49603659860442
20
35.836443966187524
30
0.0
 70
     32
  0
VERTEX
  8
MY3DLAYER
10
-33.11184229244027
20
35.958935334594294
30
0.0
 70
     32
  0
VERTEX
  8
MY3DLAYER
10
-33.738368015096526
20
36.0
30
0.0
 70
     32
  0
VERTEX
  8
MY3DLAYER
10
-34.35953372334257
20
36.08177801690624
30
0.0
 70
     32
  0
VERTEX
  8
MY3DLAYER
10
-34.93836801509652
20
36.32153903091735
30
0.0
 70
     32
  0
VERTEX
  8
MY3DLAYER
10
-35.43542428994424
20
36.70294372515229
30
0.0
 70
     32
  0
VERTEX
  8
MY3DLAYER
10
-35.81682898417918
20
37.2
30
0.0
 70
     32
  0
VERTEX
  8
MY3DLAYER
10
-36.05658999819029
20
37.77883429175395
30
0.0
 70
     32
  0
VERTEX
  8
MY3DLAYER
10
-36.138368015096525
20
38.400000000000006
30
0.0
 70
     32
  0
VERTEX
  8
MY3DLAYER
10
-36.05658999819029
20
39.02116570824605
30
0.0
 70
     32
  0
VERTEX
  8
MY3DLAYER
10
-35.81682898417918
20
39.6
30
0.0
 70
     32
  0
VERTEX
  8
MY3DLAYER
10
-35.43542428994424
20
40.097056274847716
30
0.0
 70
     32
  0
VERTEX
  8
MY3DLAYER
10
-34.93836801509652
20
40.47846096908266
30
0.0
 70
     32
  0
VERTEX
  8
MY3DLAYER
10
-34.35953372334257
20
40.71822198309377
30
0.0
 70
     32
  0
VERTEX
  8
MY3DLAYER
10
-33.738368015096526
20
40.800000000000004
30
0.0
 70
     32
  0
SEQEND
  0
POLYLINE
 8
Layer0
 66
     1
70
    8
 10
0.0
 20
 0.0
 30
0.0
  0
VERTEX
  8
MY3DLAYER
10
-49.402834109163784
20
13.535533905932736
30
0.0
 70
     32
  0
VERTEX
  8
MY3DLAYER
10
-48.608240996174324
20
12.499999999999998
30
0.0
 70
     32
  0
VERTEX
  8
MY3DLAYER
10
-48.108738883651185
20
11.294095225512603
30
0.0
 70
     32
  0
VERTEX
  8
MY3DLAYER
10
-47.93836801509652
20
9.999999999999998
30
0.0
 70
     32
  0
VERTEX
  8
MY3DLAYER
10
-48.108738883651185
20
8.70590477448739
30
0.0
 70
     32
  0
VERTEX
  8
MY3DLAYER
10
-48.60824099617433
20
7.499999999999997
30
0.0
 70
     32
  0
VERTEX
  8
MY3DLAYER
10
-49.402834109163784
20
6.4644660940672605
30
0.0
 70
     32
  0
VERTEX
  8
MY3DLAYER
10
-50.43836801509653
20
5.669872981077805
30
0.0
 70
     32
  0
VERTEX
  8
MY3DLAYER
10
-51.64427278958392
20
5.170370868554658
30
0.0
 70
     32
  0
VERTEX
  8
MY3DLAYER
10
-52.93836801509652
20
4.999999999999999
30
0.0
 70
     32
  0
VERTEX
  8
MY3DLAYER
10
-54.23246324060913
20
5.1703708685546585
30
0.0
 70
     32
  0
VERTEX
  8
MY3DLAYER
10
-55.438368015096515
20
5.669872981077807
30
0.0
 70
     32
  0
VERTEX
  8
MY3DLAYER
10
-56.47390192102927
20
6.464466094067263
30
0.0
 70
     32
  0
VERTEX
  8
MY3DLAYER
10
-57.26849503401873
20
7.5
30
0.0
 70
     32
  0
VERTEX
  8
MY3DLAYER
10
-57.76799714654186
20
8.705904774487397
30
0.0
 70
     32
  0
VERTEX
  8
MY3DLAYER
10
-57.93836801509652
20
9.999999999999998
30
0.0
 70
     32
  0
VERTEX
  8
MY3DLAYER
10
-57.76799714654186
20
11.294095225512605
30
0.0
 70
     32
  0
VERTEX
  8
MY3DLAYER
10
-57.26849503401871
20
12.5
30
0.0
 70
     32
  0
VERTEX
  8
MY3DLAYER
10
-56.47390192102926
20
13.535533905932736
30
0.0
 70
     32
  0
VERTEX
  8
MY3DLAYER
10
-55.438368015096515
20
14.330127018922191
30
0.0
 70
     32
  0
VERTEX
  8
MY3DLAYER
10
-54.23246324060913
20
14.829629131445339
30
0.0
 70
     32
  0
VERTEX
  8
MY3DLAYER
10
-52.93836801509652
20
14.999999999999998
30
0.0
 70
     32
  0
VERTEX
  8
MY3DLAYER
10
-51.64427278958392
20
14.829629131445339
30
0.0
 70
     32
  0
VERTEX
  8
MY3DLAYER
10
-50.43836801509652
20
14.330127018922191
30
0.0
 70
     32
  0
VERTEX
  8
MY3DLAYER
10
-49.402834109163784
20
13.535533905932736
30
0.0
 70
     32
  0
SEQEND
  0
POLYLINE
 8
Layer0
 66
     1
70
    8
 10
0.0
 20
 0.0
 30
0.0
  0
VERTEX
  8
MY3DLAYER
10
42.73150496598131
20
12.499999999999996
30
0.0
 70
     32
  0
VERTEX
  8
MY3DLAYER
10
43.526098078970776
20
13.53553390593273
30
0.0
 70
     32
  0
VERTEX
  8
MY3DLAYER
10
44.5616319849035
20
14.330127018922186
30
0.0
 70
     32
  0
VERTEX
  8
MY3DLAYER
10
45.76753675939089
20
14.82962913144533
30
0.0
 70
     32
  0
VERTEX
  8
MY3DLAYER
10
47.06163198490352
20
14.99999999999999
30
0.0
 70
     32
  0
VERTEX
  8
MY3DLAYER
10
48.3557272104161
20
14.82962913144533
30
0.0
 70
     32
  0
VERTEX
  8
MY3DLAYER
10
49.56163198490349
20
14.330127018922184
30
0.0
 70
     32
  0
VERTEX
  8
MY3DLAYER
10
50.59716589083622
20
13.535533905932729
30
0.0
 70
     32
  0
VERTEX
  8
MY3DLAYER
10
51.39175900382569
20
12.499999999999993
30
0.0
 70
     32
  0
VERTEX
  8
MY3DLAYER
10
51.89126111634884
20
11.294095225512597
30
0.0
 70
     32
  0
VERTEX
  8
MY3DLAYER
10
52.061631984903514
20
9.999999999999998
30
0.0
 70
     32
  0
VERTEX
  8
MY3DLAYER
10
51.89126111634884
20
8.705904774487395
30
0.0
 70
     32
  0
VERTEX
  8
MY3DLAYER
10
51.39175900382569
20
7.500000000000002
30
0.0
 70
     32
  0
VERTEX
  8
MY3DLAYER
10
50.59716589083622
20
6.464466094067267
30
0.0
 70
     32
  0
VERTEX
  8
MY3DLAYER
10
49.56163198490349
20
5.6698729810778135
30
0.0
 70
     32
  0
VERTEX
  8
MY3DLAYER
10
48.3557272104161
20
5.170370868554666
30
0.0
 70
     32
  0
VERTEX
  8
MY3DLAYER
10
47.06163198490352
20
5.000000000000008
30
0.0
 70
     32
  0
VERTEX
  8
MY3DLAYER
10
45.76753675939089
20
5.1703708685546665
30
0.0
 70
     32
  0
VERTEX
  8
MY3DLAYER
10
44.5616319849035
20
5.6698729810778135
30
0.0
 70
     32
  0
VERTEX
  8
MY3DLAYER
10
43.526098078970776
20
6.464466094067267
30
0.0
 70
     32
  0
VERTEX
  8
MY3DLAYER
10
42.73150496598131
20
7.5000000000000036
30
0.0
 70
     32
  0
VERTEX
  8
MY3DLAYER
10
42.23200285345819
20
8.705904774487397
30
0.0
 70
     32
  0
VERTEX
  8
MY3DLAYER
10
42.06163198490353
20
9.999999999999998
30
0.0
 70
     32
  0
VERTEX
  8
MY3DLAYER
10
42.23200285345819
20
11.294095225512605
30
0.0
 70
     32
  0
VERTEX
  8
MY3DLAYER
10
42.73150496598131
20
12.499999999999996
30
0.0
 70
     32
  0
SEQEND
  0
POLYLINE
 8
Layer0
 66
     1
70
    8
 10
0.0
 20
 0.0
 30
0.0
  0
VERTEX
  8
MY3DLAYER
10
14.63163198490347
20
10.429999999999994
30
0.0
 70
     32
  0
VERTEX
  8
MY3DLAYER
10
26.631631984903493
20
10.429999999999994
30
0.0
 70
     32
  0
VERTEX
  8
MY3DLAYER
10
27.356325311190567
20
10.334592313609386
30
0.0
 70
     32
  0
VERTEX
  8
MY3DLAYER
10
28.03163198490349
20
10.054871130596423
30
0.0
 70
     32
  0
VERTEX
  8
MY3DLAYER
10
28.611530972225825
20
9.609898987322328
30
0.0
 70
     32
  0
VERTEX
  8
MY3DLAYER
10
29.056503115499932
20
9.029999999999998
30
0.0
 70
     32
  0
VERTEX
  8
MY3DLAYER
10
29.33622429851288
20
8.354693326287055
30
0.0
 70
     32
  0
VERTEX
  8
MY3DLAYER
10
29.431631984903493
20
7.63
30
0.0
 70
     32
  0
VERTEX
  8
MY3DLAYER
10
29.33622429851288
20
6.905306673712943
30
0.0
 70
     32
  0
VERTEX
  8
MY3DLAYER
10
29.056503115499932
20
6.230000000000001
30
0.0
 70
     32
  0
VERTEX
  8
MY3DLAYER
10
28.611530972225825
20
5.650101012677671
30
0.0
 70
     32
  0
VERTEX
  8
MY3DLAYER
10
28.03163198490349
20
5.205128869403576
30
0.0
 70
     32
  0
VERTEX
  8
MY3DLAYER
10
27.356325311190567
20
4.925407686390613
30
0.0
 70
     32
  0
VERTEX
  8
MY3DLAYER
10
26.631631984903493
20
4.8300000000000045
30
0.0
 70
     32
  0
VERTEX
  8
MY3DLAYER
10
14.63163198490347
20
4.8300000000000045
30
0.0
 70
     32
  0
VERTEX
  8
MY3DLAYER
10
13.90693865861642
20
4.925407686390613
30
0.0
 70
     32
  0
VERTEX
  8
MY3DLAYER
10
13.231631984903473
20
5.205128869403576
30
0.0
 70
     32
  0
VERTEX
  8
MY3DLAYER
10
12.651732997581137
20
5.650101012677671
30
0.0
 70
     32
  0
VERTEX
  8
MY3DLAYER
10
12.206760854307062
20
6.230000000000002
30
0.0
 70
     32
  0
VERTEX
  8
MY3DLAYER
10
11.927039671294086
20
6.905306673712943
30
0.0
 70
     32
  0
VERTEX
  8
MY3DLAYER
10
11.831631984903481
20
7.63
30
0.0
 70
     32
  0
VERTEX
  8
MY3DLAYER
10
11.927039671294086
20
8.354693326287059
30
0.0
 70
     32
  0
VERTEX
  8
MY3DLAYER
10
12.206760854307062
20
9.029999999999998
30
0.0
 70
     32
  0
VERTEX
  8
MY3DLAYER
10
12.651732997581137
20
9.60989898732233
30
0.0
 70
     32
  0
VERTEX
  8
MY3DLAYER
10
13.231631984903473
20
10.054871130596425
30
0.0
 70
     32
  0
VERTEX
  8
MY3DLAYER
10
13.90693865861642
20
10.334592313609386
30
0.0
 70
     32
  0
VERTEX
  8
MY3DLAYER
10
14.63163198490347
20
10.429999999999994
30
0.0
 70
     32
  0
SEQEND
  0
POLYLINE
 8
Layer0
 66
     1
70
    8
 10
0.0
 20
 0.0
 30
0.0
  0
VERTEX
  8
MY3DLAYER
10
-32.50836801509652
20
10.43
30
0.0
 70
     32
  0
VERTEX
  8
MY3DLAYER
10
-20.508368015096522
20
10.43
30
0.0
 70
     32
  0
VERTEX
  8
MY3DLAYER
10
-19.783674688809462
20
10.334592313609392
30
0.0
 70
     32
  0
VERTEX
  8
MY3DLAYER
10
-19.10836801509652
20
10.054871130596428
30
0.0
 70
     32
  0
VERTEX
  8
MY3DLAYER
10
-18.52846902777419
20
9.609898987322333
30
0.0
 70
     32
  0
VERTEX
  8
MY3DLAYER
10
-18.083496884500097
20
9.03
30
0.0
 70
     32
  0
VERTEX
  8
MY3DLAYER
10
-17.803775701487133
20
8.354693326287059
30
0.0
 70
     32
  0
VERTEX
  8
MY3DLAYER
10
-17.70836801509652
20
7.63
30
0.0
 70
     32
  0
VERTEX
  8
MY3DLAYER
10
-17.803775701487133
20
6.905306673712939
30
0.0
 70
     32
  0
VERTEX
  8
MY3DLAYER
10
-18.083496884500097
20
6.229999999999998
30
0.0
 70
     32
  0
VERTEX
  8
MY3DLAYER
10
-18.52846902777419
20
5.650101012677666
30
0.0
 70
     32
  0
VERTEX
  8
MY3DLAYER
10
-19.108368015096527
20
5.20512886940357
30
0.0
 70
     32
  0
VERTEX
  8
MY3DLAYER
10
-19.783674688809466
20
4.925407686390607
30
0.0
 70
     32
  0
VERTEX
  8
MY3DLAYER
10
-20.508368015096522
20
4.829999999999999
30
0.0
 70
     32
  0
VERTEX
  8
MY3DLAYER
10
-32.50836801509652
20
4.829999999999999
30
0.0
 70
     32
  0
VERTEX
  8
MY3DLAYER
10
-33.23306134138358
20
4.925407686390609
30
0.0
 70
     32
  0
VERTEX
  8
MY3DLAYER
10
-33.90836801509653
20
5.205128869403572
30
0.0
 70
     32
  0
VERTEX
  8
MY3DLAYER
10
-34.48826700241886
20
5.650101012677667
30
0.0
 70
     32
  0
VERTEX
  8
MY3DLAYER
10
-34.93323914569296
20
6.23
30
0.0
 70
     32
  0
VERTEX
  8
MY3DLAYER
10
-35.21296032870592
20
6.905306673712943
30
0.0
 70
     32
  0
VERTEX
  8
MY3DLAYER
10
-35.30836801509653
20
7.63
30
0.0
 70
     32
  0
VERTEX
  8
MY3DLAYER
10
-35.21296032870591
20
8.354693326287059
30
0.0
 70
     32
  0
VERTEX
  8
MY3DLAYER
10
-34.93323914569295
20
9.030000000000001
30
0.0
 70
     32
  0
VERTEX
  8
MY3DLAYER
10
-34.48826700241886
20
9.609898987322333
30
0.0
 70
     32
  0
VERTEX
  8
MY3DLAYER
10
-33.90836801509652
20
10.054871130596428
30
0.0
 70
     32
  0
VERTEX
  8
MY3DLAYER
10
-33.23306134138358
20
10.334592313609392
30
0.0
 70
     32
  0
VERTEX
  8
MY3DLAYER
10
-32.50836801509652
20
10.43
30
0.0
 70
     32
  0
SEQEND
 0
ENDSEC
 0
EOF
